<?xml version="1.0" encoding="UTF-8"?>
<svg width="407px" height="30px" viewBox="0 0 407 30" version="1.1" xmlns="http://www.w3.org/2000/svg"
     xmlns:xlink="http://www.w3.org/1999/xlink">
    <!-- Generator: Sketch 61.1 (89650) - https://sketch.com -->
    <title>Logo</title>
    <desc>Created with Sketch.</desc>
    <g id="Homepage" stroke="none" stroke-width="1" fill="none" fill-rule="evenodd">
        <g id="Desktop" transform="translate(-15.000000, -15.000000)">
            <rect fill="#FFFFFF" x="0" y="0" width="1024" height="3577"></rect>
            <g id="Hero-Banner" transform="translate(-325.000000, -961.000000)" fill="#FFFCE6">
                <rect id="Rectangle"
                      transform="translate(929.000000, 754.000000) rotate(151.000000) translate(-929.000000, -754.000000) "
                      x="86" y="360" width="1686" height="788" rx="298"></rect>
            </g>
            <g id="Top-Navigation" transform="translate(15.000000, 15.000000)" fill-rule="nonzero">
                <g id="Logo" transform="translate(-0.000000, 0.000000)">
                    <path d="M11.5448276,29.6275862 C14.5793103,29.6275862 17.2482759,29 19.5517241,27.7448276 C21.8551724,26.4896552 23.6344828,24.7586207 24.8896552,22.5517241 C26.1448276,20.3448276 26.7724138,17.8344828 26.7724138,15.0206897 C26.7724138,12.1793103 26.1517241,9.65517241 24.9103448,7.44827586 C23.6689655,5.24137931 21.8965517,3.52413793 19.5931034,2.29655172 C17.2896552,1.06896552 14.6068966,0.455172414 11.5448276,0.455172414 L11.5448276,0.455172414 L-4.41026526e-14,0.455172414 L-4.41026526e-14,29.6275862 L11.5448276,29.6275862 Z M10.9241379,22.4689655 L8.11034483,22.4689655 L8.11034483,7.48965517 L10.9241379,7.48965517 C13.2965517,7.48965517 15.1586207,8.14482759 16.5103448,9.45517241 C17.862069,10.7655172 18.537931,12.6206897 18.537931,15.0206897 C18.537931,17.3931034 17.862069,19.2275862 16.5103448,20.5241379 C15.1586207,21.8206897 13.2965517,22.4689655 10.9241379,22.4689655 L10.9241379,22.4689655 Z M38.5241379,29.6275862 L38.5241379,18.8689655 L39.3931034,18.8689655 L45.1862069,29.6275862 L54.2482759,29.6275862 L47.6689655,18.2482759 C49.7655172,17.6137931 51.3586207,16.5448276 52.4482759,15.0413793 C53.537931,13.537931 54.0827586,11.7931034 54.0827586,9.80689655 C54.0827586,8.04137931 53.6689655,6.44827586 52.8413793,5.02758621 C52.0137931,3.60689655 50.7862069,2.48965517 49.1586207,1.67586207 C47.5310345,0.862068966 45.5448276,0.455172414 43.2,0.455172414 L43.2,0.455172414 L30.4137931,0.455172414 L30.4137931,29.6275862 L38.5241379,29.6275862 Z M42.537931,13.3241379 L38.5241379,13.3241379 L38.5241379,7.24137931 L42.537931,7.24137931 C43.6137931,7.24137931 44.4344828,7.51034483 45,8.04827586 C45.5655172,8.5862069 45.8482759,9.32413793 45.8482759,10.262069 C45.8482759,11.2551724 45.5724138,12.0137931 45.0206897,12.537931 C44.4689655,13.062069 43.6413793,13.3241379 42.537931,13.3241379 L42.537931,13.3241379 Z M69.9724138,29.9172414 C72.3448276,29.9172414 74.5034483,29.4413793 76.4482759,28.4896552 C78.3931034,27.537931 79.9310345,26.1172414 81.062069,24.2275862 C82.1931034,22.337931 82.7586207,20.0551724 82.7586207,17.3793103 L82.7586207,17.3793103 L82.7586207,0.455172414 L74.6482759,0.455172414 L74.6482759,17.3793103 C74.6482759,18.9241379 74.2689655,20.1310345 73.5103448,21 C72.7517241,21.8689655 71.6275862,22.3034483 70.137931,22.3034483 C68.6482759,22.3034483 67.537931,21.8758621 66.8068966,21.0206897 C66.0758621,20.1655172 65.7103448,18.9517241 65.7103448,17.3793103 L65.7103448,17.3793103 L65.7103448,0.455172414 L57.6413793,0.455172414 L57.6413793,17.3793103 C57.6413793,20.0827586 58.1724138,22.3724138 59.2344828,24.2482759 C60.2965517,26.1241379 61.7586207,27.537931 63.6206897,28.4896552 C65.4827586,29.4413793 67.6,29.9172414 69.9724138,29.9172414 Z M95.337931,29.6275862 L95.337931,13.3241379 L106.137931,29.6275862 L114.248276,29.6275862 L114.248276,0.455172414 L106.137931,0.455172414 L106.137931,16.9655172 L95.337931,0.455172414 L87.2275862,0.455172414 L87.2275862,29.6275862 L95.337931,29.6275862 Z M126.993103,29.6275862 L126.993103,16.8413793 L136.137931,29.6275862 L145.944828,29.6275862 L134.689655,14.6068966 L145.406897,0.455172414 L136.055172,0.455172414 L126.993103,13.0344828 L126.993103,0.455172414 L118.882759,0.455172414 L118.882759,29.6275862 L126.993103,29.6275862 Z"
                          id="DRUNK" fill="#00CCFE"></path>
                    <path d="M160.510345,29.6275862 C163.544828,29.6275862 166.213793,29 168.517241,27.7448276 C170.82069,26.4896552 172.6,24.7586207 173.855172,22.5517241 C175.110345,20.3448276 175.737931,17.8344828 175.737931,15.0206897 C175.737931,12.1793103 175.117241,9.65517241 173.875862,7.44827586 C172.634483,5.24137931 170.862069,3.52413793 168.558621,2.29655172 C166.255172,1.06896552 163.572414,0.455172414 160.510345,0.455172414 L160.510345,0.455172414 L148.965517,0.455172414 L148.965517,29.6275862 L160.510345,29.6275862 Z M159.889655,22.4689655 L157.075862,22.4689655 L157.075862,7.48965517 L159.889655,7.48965517 C162.262069,7.48965517 164.124138,8.14482759 165.475862,9.45517241 C166.827586,10.7655172 167.503448,12.6206897 167.503448,15.0206897 C167.503448,17.3931034 166.827586,19.2275862 165.475862,20.5241379 C164.124138,21.8206897 162.262069,22.4689655 159.889655,22.4689655 L159.889655,22.4689655 Z M198.041379,29.6275862 L198.041379,23.1310345 L187.489655,23.1310345 L187.489655,17.8758621 L196.8,17.8758621 L196.8,11.7103448 L187.489655,11.7103448 L187.489655,6.95172414 L198.041379,6.95172414 L198.041379,0.455172414 L179.37931,0.455172414 L179.37931,29.6275862 L198.041379,29.6275862 Z M220.386207,29.6275862 L230.441379,0.455172414 L221.793103,0.455172414 L215.213793,21.5172414 L208.593103,0.455172414 L199.903448,0.455172414 L210,29.6275862 L220.386207,29.6275862 Z M251.627586,29.6275862 L251.627586,23.1310345 L241.075862,23.1310345 L241.075862,17.8758621 L250.386207,17.8758621 L250.386207,11.7103448 L241.075862,11.7103448 L241.075862,6.95172414 L251.627586,6.95172414 L251.627586,0.455172414 L232.965517,0.455172414 L232.965517,29.6275862 L251.627586,29.6275862 Z M272.813793,29.6275862 L272.813793,23.4206897 L263.751724,23.4206897 L263.751724,0.455172414 L255.641379,0.455172414 L255.641379,29.6275862 L272.813793,29.6275862 Z M289.944828,29.9172414 C292.675862,29.9172414 295.186207,29.2758621 297.475862,27.9931034 C299.765517,26.7103448 301.572414,24.9310345 302.896552,22.6551724 C304.22069,20.3793103 304.882759,17.8068966 304.882759,14.937931 C304.882759,12.0689655 304.22069,9.49655172 302.896552,7.22068966 C301.572414,4.94482759 299.772414,3.17241379 297.496552,1.90344828 C295.22069,0.634482759 292.703448,-7.35044209e-15 289.944828,-7.35044209e-15 C287.213793,-7.35044209e-15 284.703448,0.634482759 282.413793,1.90344828 C280.124138,3.17241379 278.310345,4.94482759 276.972414,7.22068966 C275.634483,9.49655172 274.965517,12.0689655 274.965517,14.937931 C274.965517,17.8068966 275.634483,20.3793103 276.972414,22.6551724 C278.310345,24.9310345 280.124138,26.7103448 282.413793,27.9931034 C284.703448,29.2758621 287.213793,29.9172414 289.944828,29.9172414 Z M289.944828,22.3862069 C287.848276,22.3862069 286.206897,21.7172414 285.02069,20.3793103 C283.834483,19.0413793 283.241379,17.2275862 283.241379,14.937931 C283.241379,12.6206897 283.834483,10.7931034 285.02069,9.45517241 C286.206897,8.11724138 287.848276,7.44827586 289.944828,7.44827586 C292.013793,7.44827586 293.648276,8.11724138 294.848276,9.45517241 C296.048276,10.7931034 296.648276,12.6206897 296.648276,14.937931 C296.648276,17.2 296.048276,19.0068966 294.848276,20.3586207 C293.648276,21.7103448 292.013793,22.3862069 289.944828,22.3862069 Z M316.634483,29.6275862 L316.634483,19.7793103 L320.648276,19.7793103 C323.02069,19.7793103 325.027586,19.3448276 326.668966,18.4758621 C328.310345,17.6068966 329.537931,16.4482759 330.351724,15 C331.165517,13.5517241 331.572414,11.9448276 331.572414,10.1793103 C331.572414,8.27586207 331.158621,6.59310345 330.331034,5.13103448 C329.503448,3.66896552 328.268966,2.52413793 326.627586,1.69655172 C324.986207,0.868965517 322.993103,0.455172414 320.648276,0.455172414 L320.648276,0.455172414 L308.524138,0.455172414 L308.524138,29.6275862 L316.634483,29.6275862 Z M319.862069,13.3241379 L316.634483,13.3241379 L316.634483,6.99310345 L319.862069,6.99310345 C322.151724,6.99310345 323.296552,8.05517241 323.296552,10.1793103 C323.296552,12.2758621 322.151724,13.3241379 319.862069,13.3241379 L319.862069,13.3241379 Z M353.503448,29.6275862 L353.503448,23.1310345 L342.951724,23.1310345 L342.951724,17.8758621 L352.262069,17.8758621 L352.262069,11.7103448 L342.951724,11.7103448 L342.951724,6.95172414 L353.503448,6.95172414 L353.503448,0.455172414 L334.841379,0.455172414 L334.841379,29.6275862 L353.503448,29.6275862 Z M365.627586,29.6275862 L365.627586,18.8689655 L366.496552,18.8689655 L372.289655,29.6275862 L381.351724,29.6275862 L374.772414,18.2482759 C376.868966,17.6137931 378.462069,16.5448276 379.551724,15.0413793 C380.641379,13.537931 381.186207,11.7931034 381.186207,9.80689655 C381.186207,8.04137931 380.772414,6.44827586 379.944828,5.02758621 C379.117241,3.60689655 377.889655,2.48965517 376.262069,1.67586207 C374.634483,0.862068966 372.648276,0.455172414 370.303448,0.455172414 L370.303448,0.455172414 L357.517241,0.455172414 L357.517241,29.6275862 L365.627586,29.6275862 Z M369.641379,13.3241379 L365.627586,13.3241379 L365.627586,7.24137931 L369.641379,7.24137931 C370.717241,7.24137931 371.537931,7.51034483 372.103448,8.04827586 C372.668966,8.5862069 372.951724,9.32413793 372.951724,10.262069 C372.951724,11.2551724 372.675862,12.0137931 372.124138,12.537931 C371.572414,13.062069 370.744828,13.3241379 369.641379,13.3241379 L369.641379,13.3241379 Z M395.875862,29.9172414 C398.110345,29.9172414 400.048276,29.5172414 401.689655,28.7172414 C403.331034,27.9172414 404.586207,26.8275862 405.455172,25.4482759 C406.324138,24.0689655 406.758621,22.5103448 406.758621,20.7724138 C406.758621,19.062069 406.324138,17.6482759 405.455172,16.5310345 C404.586207,15.4137931 403.551724,14.5448276 402.351724,13.9241379 C401.151724,13.3034483 399.627586,12.6758621 397.77931,12.0413793 C396.537931,11.6 395.6,11.2344828 394.965517,10.9448276 C394.331034,10.6551724 393.8,10.3103448 393.372414,9.91034483 C392.944828,9.51034483 392.731034,9.03448276 392.731034,8.48275862 C392.731034,7.82068966 392.924138,7.31034483 393.310345,6.95172414 C393.696552,6.59310345 394.193103,6.4137931 394.8,6.4137931 C395.6,6.4137931 396.255172,6.63448276 396.765517,7.07586207 C397.275862,7.51724138 397.544828,8.17931034 397.572414,9.06206897 L397.572414,9.06206897 L406.386207,9.06206897 C406.248276,6.19310345 405.165517,3.96551724 403.137931,2.37931034 C401.110345,0.793103448 398.4,-7.35044209e-15 395.006897,-7.35044209e-15 C392.910345,-7.35044209e-15 391.034483,0.344827586 389.37931,1.03448276 C387.724138,1.72413793 386.427586,2.73793103 385.489655,4.07586207 C384.551724,5.4137931 384.082759,7.02068966 384.082759,8.89655172 C384.082759,10.7448276 384.517241,12.2413793 385.386207,13.3862069 C386.255172,14.5310345 387.275862,15.4 388.448276,15.9931034 C389.62069,16.5862069 391.158621,17.2 393.062069,17.8344828 C394.855172,18.4137931 396.151724,18.937931 396.951724,19.4068966 C397.751724,19.8758621 398.151724,20.537931 398.151724,21.3931034 C398.151724,22.0551724 397.910345,22.5724138 397.427586,22.9448276 C396.944828,23.3172414 396.331034,23.5034483 395.586207,23.5034483 C394.758621,23.5034483 394.082759,23.2689655 393.558621,22.8 C393.034483,22.3310345 392.731034,21.5862069 392.648276,20.5655172 L392.648276,20.5655172 L384,20.5655172 C384.165517,23.5724138 385.337931,25.8827586 387.517241,27.4965517 C389.696552,29.1103448 392.482759,29.9172414 395.875862,29.9172414 Z"
                          id="DEVELOPERS" fill="#6138D5"></path>
                </g>
            </g>
        </g>
    </g>
</svg>
